<?xml version="1.0" encoding="UTF-8"?><svg xmlns="http://www.w3.org/2000/svg" xmlns:xlink="http://www.w3.org/1999/xlink" width="375" zoomAndPan="magnify" viewBox="0 0 375 374.999991" height="374.999991" preserveAspectRatio="xMidYMid meet" version="1.0"><defs><clipPath id="clip-0"><path d="M 206 330 L 225.75 330 L 225.75 369 L 206 369 Z M 206 330 " clip-rule="nonzero"/></clipPath><clipPath id="clip-1"><path d="M 6 225 L 225.75 225 L 225.75 369 L 6 369 Z M 6 225 " clip-rule="nonzero"/></clipPath><clipPath id="clip-2"><path d="M 0 0 L 225.75 0 L 225.75 375 L 0 375 Z M 0 0 " clip-rule="nonzero"/></clipPath><clipPath id="clip-3"><path d="M 222.453125 330 L 255 330 L 255 368 L 222.453125 368 Z M 222.453125 330 " clip-rule="nonzero"/></clipPath><clipPath id="clip-4"><path d="M 222.453125 224 L 255 224 L 255 368 L 222.453125 368 Z M 222.453125 224 " clip-rule="nonzero"/></clipPath><clipPath id="clip-5"><path d="M 222.453125 0.675781 L 261.101562 0.675781 L 261.101562 374.175781 L 222.453125 374.175781 Z M 222.453125 0.675781 " clip-rule="nonzero"/></clipPath><clipPath id="clip-6"><path d="M 183.1875 244.914062 L 375 244.914062 L 375 374.664062 L 183.1875 374.664062 Z M 183.1875 244.914062 " clip-rule="nonzero"/></clipPath></defs><path fill="rgb(98.039246%, 74.119568%, 37.649536%)" d="M 56.25 330.9375 L 56.25 368.4375 L 6.25 368.4375 L 6.25 330.9375 L 56.25 330.9375 " fill-opacity="1" fill-rule="nonzero"/><g clip-path="url(#clip-0)"><path fill="rgb(98.039246%, 74.119568%, 37.649536%)" d="M 256.25 330.9375 L 256.25 368.4375 L 206.25 368.4375 L 206.25 330.9375 L 256.25 330.9375 " fill-opacity="1" fill-rule="nonzero"/></g><g clip-path="url(#clip-1)"><path fill="rgb(34.118652%, 59.609985%, 84.709167%)" d="M 206.25 330.9375 L 206.25 368.4375 L 56.25 368.4375 L 56.25 330.9375 L 6.25 330.9375 L 6.25 286.429688 C 6.25 264.554688 20.433594 245.242188 41.308594 238.75 L 84.253906 225.320312 C 93.75 230.9375 106.25 237.1875 106.25 237.1875 L 131.25 287.1875 L 156.25 237.1875 C 156.25 237.1875 168.75 230.9375 178.246094 225.320312 L 221.191406 238.75 C 242.066406 245.242188 256.25 264.554688 256.25 286.429688 L 256.25 330.9375 L 206.25 330.9375 " fill-opacity="1" fill-rule="nonzero"/></g><path fill="rgb(25.489807%, 49.01886%, 78.42865%)" d="M 106.25 237.1875 L 106.25 262.1875 C 106.25 255.300781 100.632812 249.6875 93.75 249.6875 C 86.863281 249.6875 81.25 255.300781 81.25 262.1875 L 81.25 237.1875 C 81.25 232.867188 82.375 228.8125 84.253906 225.320312 C 88.5 217.507812 96.753906 212.1875 106.25 212.1875 L 106.25 237.1875 " fill-opacity="1" fill-rule="nonzero"/><path fill="rgb(25.489807%, 49.01886%, 78.42865%)" d="M 156.25 212.1875 C 165.746094 212.1875 174 217.507812 178.246094 225.320312 C 180.125 228.8125 181.25 232.867188 181.25 237.1875 L 181.25 262.1875 C 181.25 255.300781 175.632812 249.6875 168.75 249.6875 C 161.863281 249.6875 156.25 255.300781 156.25 262.1875 L 156.25 212.1875 " fill-opacity="1" fill-rule="nonzero"/><path fill="rgb(98.039246%, 74.119568%, 37.649536%)" d="M 156.25 181.9375 L 156.25 237.1875 L 131.25 287.1875 L 106.25 237.1875 L 106.25 181.9375 L 156.25 181.9375 " fill-opacity="1" fill-rule="nonzero"/><path fill="rgb(97.648621%, 67.449951%, 24.308777%)" d="M 200 99.6875 C 210.375 99.6875 218.75 108.0625 218.75 118.4375 C 218.75 123.636719 216.625 128.324219 213.257812 131.695312 C 209.886719 135.0625 205.199219 137.1875 200 137.1875 L 187.5 137.1875 L 187.5 99.6875 L 200 99.6875 " fill-opacity="1" fill-rule="nonzero"/><path fill="rgb(97.648621%, 67.449951%, 24.308777%)" d="M 75 99.6875 L 75 137.1875 L 62.5 137.1875 C 57.300781 137.1875 52.613281 135.0625 49.242188 131.695312 C 45.875 128.324219 43.75 123.636719 43.75 118.4375 C 43.75 108.0625 52.125 99.6875 62.5 99.6875 L 75 99.6875 " fill-opacity="1" fill-rule="nonzero"/><path fill="rgb(97.648621%, 67.449951%, 24.308777%)" d="M 156.25 181.9375 L 156.25 206.9375 C 148.632812 210.308594 140.113281 212.1875 131.25 212.1875 C 122.386719 212.1875 113.867188 210.308594 106.25 206.9375 L 106.25 181.9375 L 156.25 181.9375 " fill-opacity="1" fill-rule="nonzero"/><path fill="rgb(98.039246%, 74.119568%, 37.649536%)" d="M 193.75 99.6875 L 193.75 137.1875 C 193.75 171.683594 165.746094 199.6875 131.25 199.6875 C 96.753906 199.6875 68.75 171.683594 68.75 137.1875 L 68.75 87.1875 C 68.75 80.300781 74.363281 74.6875 81.25 74.6875 L 181.25 74.6875 C 188.132812 74.6875 193.75 80.300781 193.75 87.1875 L 193.75 99.6875 " fill-opacity="1" fill-rule="nonzero"/><path fill="rgb(42.349243%, 66.668701%, 88.238525%)" d="M 195.554688 72.074219 C 203.929688 73.367188 208.617188 82.425781 204.808594 89.996094 L 204.175781 91.3125 C 201.683594 96.246094 196.238281 99.003906 190.746094 98.003906 L 144.675781 89.628906 C 135.816406 87.992188 126.683594 87.992188 117.820312 89.628906 L 71.753906 98.003906 C 66.257812 99.003906 60.816406 96.246094 58.324219 91.3125 L 57.691406 89.996094 C 53.882812 82.425781 58.570312 73.367188 66.941406 72.074219 L 68.75 71.804688 L 116.0625 64.507812 C 126.121094 62.992188 136.375 62.992188 146.433594 64.507812 L 193.75 71.804688 L 195.554688 72.074219 " fill-opacity="1" fill-rule="nonzero"/><path fill="rgb(34.118652%, 59.609985%, 84.709167%)" d="M 193.75 68.4375 L 193.75 71.804688 L 146.433594 64.507812 C 136.375 62.992188 126.121094 62.992188 116.0625 64.507812 L 68.75 71.804688 L 68.75 38.945312 C 68.75 27.007812 77.195312 16.753906 88.867188 14.433594 L 89.183594 14.382812 L 121.433594 7.867188 C 127.929688 6.621094 134.570312 6.621094 141.0625 7.867188 L 173.316406 14.382812 L 173.632812 14.433594 C 185.300781 16.753906 193.75 27.007812 193.75 38.945312 L 193.75 68.4375 " fill-opacity="1" fill-rule="nonzero"/><path fill="rgb(91.369629%, 91.758728%, 91.758728%)" d="M 131.25 24.6875 C 138.132812 24.6875 143.75 30.300781 143.75 37.1875 C 143.75 44.070312 138.132812 49.6875 131.25 49.6875 C 124.363281 49.6875 118.75 44.070312 118.75 37.1875 C 118.75 30.300781 124.363281 24.6875 131.25 24.6875 " fill-opacity="1" fill-rule="nonzero"/><g clip-path="url(#clip-2)"><path fill="rgb(6.269836%, 5.879211%, 5.099487%)" d="M 362.5 330.9375 C 362.5 334.378906 359.691406 337.1875 356.25 337.1875 L 243.75 337.1875 C 240.308594 337.1875 237.5 334.378906 237.5 330.9375 L 237.5 305.9375 C 237.5 302.496094 240.308594 299.6875 243.75 299.6875 L 356.25 299.6875 C 359.691406 299.6875 362.5 302.496094 362.5 305.9375 Z M 350 362.1875 L 337.5 362.1875 L 337.5 349.6875 L 350 349.6875 Z M 262.5 362.1875 L 250 362.1875 L 250 349.6875 L 262.5 349.6875 Z M 237.5 362.1875 L 212.5 362.1875 L 212.5 337.1875 L 226.121094 337.1875 C 228.050781 342.507812 232.175781 346.636719 237.5 348.5625 Z M 200 362.1875 L 62.5 362.1875 L 62.5 293.4375 L 50 293.4375 L 50 324.6875 L 12.5 324.6875 L 12.5 286.429688 C 12.5 267.191406 24.804688 250.445312 43.1875 244.683594 L 75.242188 234.695312 C 75.195312 235.503906 75 236.308594 75 237.1875 L 75 262.1875 C 75 265.628906 77.808594 268.4375 81.25 268.4375 C 84.691406 268.4375 87.5 265.628906 87.5 262.1875 C 87.5 258.746094 90.308594 255.9375 93.75 255.9375 C 97.191406 255.9375 100 258.746094 100 262.1875 C 100 265.628906 102.808594 268.4375 106.25 268.4375 C 109.300781 268.4375 111.742188 266.191406 112.304688 263.238281 L 125.683594 289.996094 C 126.683594 292.117188 128.882812 293.4375 131.25 293.4375 C 133.617188 293.4375 135.816406 292.117188 136.816406 289.996094 L 150.195312 263.238281 C 150.757812 266.191406 153.199219 268.4375 156.25 268.4375 C 159.691406 268.4375 162.5 265.628906 162.5 262.1875 C 162.5 258.746094 165.308594 255.9375 168.75 255.9375 C 172.191406 255.9375 175 258.746094 175 262.1875 C 175 265.628906 177.808594 268.4375 181.25 268.4375 C 184.691406 268.4375 187.5 265.628906 187.5 262.1875 L 187.5 237.1875 C 187.5 236.308594 187.304688 235.503906 187.253906 234.695312 L 219.3125 244.753906 C 232.617188 248.808594 242.945312 258.988281 247.4375 272.074219 L 243.75 279.449219 L 243.066406 278.128906 C 242.066406 276.003906 239.867188 274.6875 237.5 274.6875 L 225 274.6875 L 225 287.1875 L 233.617188 287.1875 L 234.8125 289.554688 C 229.003906 292.753906 225 298.882812 225 305.9375 L 225 324.6875 L 212.5 324.6875 L 212.5 293.4375 L 200 293.4375 Z M 50 362.1875 L 12.5 362.1875 L 12.5 337.1875 L 50 337.1875 Z M 87.5 237.1875 C 87.5 229.058594 92.75 222.074219 100 219.488281 L 100 244.488281 C 98.070312 243.804688 95.945312 243.4375 93.75 243.4375 C 91.550781 243.4375 89.429688 243.804688 87.5 244.488281 Z M 150 203.25 L 150 235.699219 L 131.25 273.199219 L 112.5 235.699219 L 112.5 203.324219 C 118.503906 205.007812 124.804688 205.9375 131.25 205.9375 C 137.742188 205.9375 143.992188 205.007812 150 203.25 Z M 91.503906 176.933594 C 80.882812 166.3125 75 152.175781 75 137.1875 L 75 103.738281 L 118.945312 95.757812 C 127.125 94.316406 135.375 94.316406 143.554688 95.757812 L 187.5 103.738281 L 187.5 137.1875 C 187.5 168.191406 162.253906 193.4375 131.25 193.4375 C 116.257812 193.4375 102.125 187.554688 91.503906 176.933594 Z M 63.867188 88.503906 L 63.257812 87.261719 C 62.378906 85.429688 62.378906 83.378906 63.304688 81.570312 C 64.257812 79.742188 65.867188 78.570312 67.871094 78.25 L 116.992188 70.683594 C 121.753906 70 126.488281 69.632812 131.25 69.632812 C 136.011719 69.632812 140.746094 70 145.507812 70.683594 L 194.628906 78.25 C 196.628906 78.570312 198.242188 79.742188 199.195312 81.570312 C 200.121094 83.378906 200.121094 85.429688 199.242188 87.261719 L 198.632812 88.503906 C 197.386719 90.996094 194.628906 92.386719 191.871094 91.875 L 145.824219 83.5 C 136.132812 81.742188 126.367188 81.742188 116.675781 83.5 L 70.628906 91.875 C 67.871094 92.3125 65.113281 90.996094 63.867188 88.503906 Z M 75 38.945312 C 75 30.058594 81.371094 22.320312 90.429688 20.511719 L 122.632812 13.992188 C 128.367188 12.945312 134.128906 12.945312 139.820312 13.992188 L 172.386719 20.5625 C 181.128906 22.320312 187.5 30.058594 187.5 38.945312 L 187.5 64.507812 L 147.386719 58.378906 C 136.695312 56.695312 125.804688 56.695312 115.113281 58.378906 L 75 64.507812 Z M 175 237.1875 L 175 244.488281 C 173.070312 243.804688 170.945312 243.4375 168.75 243.4375 C 166.550781 243.4375 164.429688 243.804688 162.5 244.488281 L 162.5 219.488281 C 169.75 222.074219 175 229.058594 175 237.1875 Z M 266.382812 262.1875 L 333.617188 262.1875 L 346.117188 287.1875 L 253.882812 287.1875 Z M 275 237.1875 L 325 237.1875 L 325 249.6875 L 275 249.6875 Z M 62.5 130.9375 C 59.179688 130.9375 56.054688 129.617188 53.6875 127.25 C 51.320312 124.882812 50 121.757812 50 118.4375 C 50 111.550781 55.613281 105.9375 62.5 105.9375 Z M 200 105.9375 C 206.882812 105.9375 212.5 111.550781 212.5 118.4375 C 212.5 121.757812 211.179688 124.882812 208.8125 127.25 C 206.445312 129.617188 203.320312 130.9375 200 130.9375 Z M 375 287.1875 L 375 274.6875 L 362.5 274.6875 C 360.132812 274.6875 357.933594 276.003906 356.933594 278.128906 L 356.25 279.449219 L 343.066406 253.128906 C 342.066406 251.003906 339.867188 249.6875 337.5 249.6875 L 337.5 230.9375 C 337.5 227.496094 334.691406 224.6875 331.25 224.6875 L 268.75 224.6875 C 265.308594 224.6875 262.5 227.496094 262.5 230.9375 L 262.5 249.6875 C 260.132812 249.6875 257.933594 251.003906 256.933594 253.128906 L 254.613281 257.742188 C 247.632812 245.925781 236.5 236.941406 223.070312 232.816406 L 182.300781 220.074219 C 177.808594 213.238281 170.75 208.257812 162.5 206.570312 L 162.5 198.367188 C 182.933594 187.871094 197.507812 167.4375 199.683594 143.4375 L 200 143.4375 C 206.6875 143.4375 212.9375 140.824219 217.699219 136.136719 C 222.386719 131.375 225 125.125 225 118.4375 C 225 107.867188 218.382812 98.882812 209.128906 95.195312 C 209.300781 94.804688 210.425781 92.800781 210.425781 92.800781 C 213.132812 87.382812 213.0625 81.179688 210.300781 75.808594 C 208.054688 71.5625 204.441406 68.4375 200 66.875 L 200 38.945312 C 200 24.125 189.429688 11.1875 174.558594 8.257812 L 142.261719 1.761719 C 134.9375 0.320312 127.5625 0.320312 120.191406 1.761719 L 87.695312 8.304688 C 73.070312 11.1875 62.5 24.125 62.5 38.945312 L 62.5 66.875 C 58.054688 68.4375 54.441406 71.5625 52.195312 75.808594 C 49.4375 81.179688 49.363281 87.382812 52.074219 92.800781 C 52.074219 92.800781 53.199219 94.804688 53.367188 95.195312 C 44.117188 98.882812 37.5 107.867188 37.5 118.4375 C 37.5 125.125 40.113281 131.375 44.800781 136.136719 C 49.558594 140.824219 55.808594 143.4375 62.5 143.4375 L 62.816406 143.4375 C 64.257812 159.429688 71.117188 174.320312 82.617188 185.820312 C 87.816406 190.945312 93.675781 195.195312 100 198.367188 L 100 206.570312 C 91.746094 208.257812 84.691406 213.238281 80.199219 220.074219 L 39.429688 232.816406 C 15.867188 240.117188 0 261.675781 0 286.429688 L 0 368.4375 C 0 371.878906 2.808594 374.6875 6.25 374.6875 L 262.5 374.6875 C 269.382812 374.6875 275 369.070312 275 362.1875 L 275 349.6875 L 325 349.6875 L 325 362.1875 C 325 369.070312 330.613281 374.6875 337.5 374.6875 L 350 374.6875 C 356.882812 374.6875 362.5 369.070312 362.5 362.1875 L 362.5 348.5625 C 369.75 345.925781 375 339.066406 375 330.9375 L 375 305.9375 C 375 298.882812 370.996094 292.753906 365.183594 289.554688 L 366.382812 287.1875 L 375 287.1875 " fill-opacity="1" fill-rule="nonzero"/></g><path fill="rgb(6.269836%, 5.879211%, 5.099487%)" d="M 118.75 118.4375 C 118.75 111.550781 113.132812 105.9375 106.25 105.9375 C 99.363281 105.9375 93.75 111.550781 93.75 118.4375 C 93.75 125.320312 99.363281 130.9375 106.25 130.9375 C 113.132812 130.9375 118.75 125.320312 118.75 118.4375 " fill-opacity="1" fill-rule="nonzero"/><path fill="rgb(6.269836%, 5.879211%, 5.099487%)" d="M 156.25 130.9375 C 163.132812 130.9375 168.75 125.320312 168.75 118.4375 C 168.75 111.550781 163.132812 105.9375 156.25 105.9375 C 149.363281 105.9375 143.75 111.550781 143.75 118.4375 C 143.75 125.320312 149.363281 130.9375 156.25 130.9375 " fill-opacity="1" fill-rule="nonzero"/><path fill="rgb(6.269836%, 5.879211%, 5.099487%)" d="M 151.929688 160.625 L 143.652344 151.25 C 136.816406 157.304688 125.683594 157.304688 118.847656 151.25 L 110.570312 160.625 C 116.285156 165.652344 123.632812 168.4375 131.25 168.4375 C 138.867188 168.4375 146.214844 165.652344 151.929688 160.625 " fill-opacity="1" fill-rule="nonzero"/><path fill="rgb(6.269836%, 5.879211%, 5.099487%)" d="M 131.25 30.9375 C 134.691406 30.9375 137.5 33.746094 137.5 37.1875 C 137.5 40.628906 134.691406 43.4375 131.25 43.4375 C 127.808594 43.4375 125 40.628906 125 37.1875 C 125 33.746094 127.808594 30.9375 131.25 30.9375 Z M 131.25 55.9375 C 141.601562 55.9375 150 47.539062 150 37.1875 C 150 26.835938 141.601562 18.4375 131.25 18.4375 C 120.898438 18.4375 112.5 26.835938 112.5 37.1875 C 112.5 47.539062 120.898438 55.9375 131.25 55.9375 " fill-opacity="1" fill-rule="nonzero"/><g clip-path="url(#clip-3)"><path fill="rgb(98.039246%, 74.119568%, 37.649536%)" d="M 204.851562 330.261719 L 204.851562 367.761719 L 254.851562 367.761719 L 254.851562 330.261719 L 204.851562 330.261719 " fill-opacity="1" fill-rule="nonzero"/></g><g clip-path="url(#clip-4)"><path fill="rgb(34.118652%, 59.609985%, 84.709167%)" d="M 54.851562 330.261719 L 54.851562 367.761719 L 204.851562 367.761719 L 204.851562 330.261719 L 254.851562 330.261719 L 254.851562 285.757812 C 254.851562 263.882812 240.667969 244.570312 219.792969 238.074219 L 176.847656 224.648438 C 167.351562 230.261719 154.851562 236.511719 154.851562 236.511719 L 129.851562 286.511719 L 104.851562 236.511719 C 104.851562 236.511719 92.351562 230.261719 82.855469 224.648438 L 39.910156 238.074219 C 19.035156 244.570312 4.851562 263.882812 4.851562 285.757812 L 4.851562 330.261719 L 54.851562 330.261719 " fill-opacity="1" fill-rule="nonzero"/></g><g clip-path="url(#clip-5)"><path fill="rgb(6.269836%, 5.879211%, 5.099487%)" d="M -101.398438 330.261719 C -101.398438 333.707031 -98.589844 336.511719 -95.148438 336.511719 L 17.351562 336.511719 C 20.792969 336.511719 23.601562 333.707031 23.601562 330.261719 L 23.601562 305.261719 C 23.601562 301.820312 20.792969 299.011719 17.351562 299.011719 L -95.148438 299.011719 C -98.589844 299.011719 -101.398438 301.820312 -101.398438 305.261719 Z M -88.898438 361.511719 L -76.398438 361.511719 L -76.398438 349.011719 L -88.898438 349.011719 Z M -1.398438 361.511719 L 11.101562 361.511719 L 11.101562 349.011719 L -1.398438 349.011719 Z M 23.601562 361.511719 L 48.601562 361.511719 L 48.601562 336.511719 L 34.980469 336.511719 C 33.050781 341.835938 28.925781 345.960938 23.601562 347.890625 Z M 61.101562 361.511719 L 198.601562 361.511719 L 198.601562 292.761719 L 211.101562 292.761719 L 211.101562 324.011719 L 248.601562 324.011719 L 248.601562 285.757812 C 248.601562 266.519531 236.296875 249.769531 217.914062 244.007812 L 185.859375 234.023438 C 185.90625 234.828125 186.101562 235.632812 186.101562 236.511719 L 186.101562 261.511719 C 186.101562 264.957031 183.292969 267.761719 179.851562 267.761719 C 176.410156 267.761719 173.601562 264.957031 173.601562 261.511719 C 173.601562 258.070312 170.792969 255.261719 167.351562 255.261719 C 163.910156 255.261719 161.101562 258.070312 161.101562 261.511719 C 161.101562 264.957031 158.292969 267.761719 154.851562 267.761719 C 151.800781 267.761719 149.359375 265.515625 148.796875 262.5625 L 135.417969 289.320312 C 134.417969 291.445312 132.21875 292.761719 129.851562 292.761719 C 127.484375 292.761719 125.285156 291.445312 124.285156 289.320312 L 110.90625 262.5625 C 110.34375 265.515625 107.902344 267.761719 104.851562 267.761719 C 101.410156 267.761719 98.601562 264.957031 98.601562 261.511719 C 98.601562 258.070312 95.792969 255.261719 92.351562 255.261719 C 88.910156 255.261719 86.101562 258.070312 86.101562 261.511719 C 86.101562 264.957031 83.292969 267.761719 79.851562 267.761719 C 76.410156 267.761719 73.601562 264.957031 73.601562 261.511719 L 73.601562 236.511719 C 73.601562 235.632812 73.796875 234.828125 73.847656 234.023438 L 41.789062 244.082031 C 28.484375 248.132812 18.15625 258.316406 13.664062 271.402344 L 17.351562 278.773438 L 18.035156 277.457031 C 19.035156 275.332031 21.234375 274.011719 23.601562 274.011719 L 36.101562 274.011719 L 36.101562 286.511719 L 27.484375 286.511719 L 26.289062 288.882812 C 32.097656 292.078125 36.101562 298.207031 36.101562 305.261719 L 36.101562 324.011719 L 48.601562 324.011719 L 48.601562 292.761719 L 61.101562 292.761719 Z M 211.101562 361.511719 L 248.601562 361.511719 L 248.601562 336.511719 L 211.101562 336.511719 Z M 173.601562 236.511719 C 173.601562 228.382812 168.351562 221.402344 161.101562 218.8125 L 161.101562 243.8125 C 163.03125 243.128906 165.15625 242.761719 167.351562 242.761719 C 169.550781 242.761719 171.671875 243.128906 173.601562 243.8125 Z M 111.101562 202.578125 L 111.101562 235.023438 L 129.851562 272.523438 L 148.601562 235.023438 L 148.601562 202.652344 C 142.597656 204.335938 136.296875 205.261719 129.851562 205.261719 C 123.359375 205.261719 117.109375 204.335938 111.101562 202.578125 Z M 169.597656 176.257812 C 180.21875 165.640625 186.101562 151.503906 186.101562 136.511719 L 186.101562 103.066406 L 142.15625 95.082031 C 133.976562 93.640625 125.726562 93.640625 117.546875 95.082031 L 73.601562 103.066406 L 73.601562 136.511719 C 73.601562 167.519531 98.847656 192.761719 129.851562 192.761719 C 144.84375 192.761719 158.976562 186.878906 169.597656 176.257812 Z M 197.234375 87.832031 L 197.84375 86.585938 C 198.722656 84.753906 198.722656 82.703125 197.796875 80.898438 C 196.84375 79.066406 195.234375 77.894531 193.230469 77.578125 L 144.109375 70.007812 C 139.347656 69.324219 134.613281 68.960938 129.851562 68.960938 C 125.089844 68.960938 120.355469 69.324219 115.59375 70.007812 L 66.472656 77.578125 C 64.472656 77.894531 62.859375 79.066406 61.90625 80.898438 C 60.980469 82.703125 60.980469 84.753906 61.859375 86.585938 L 62.46875 87.832031 C 63.714844 90.320312 66.472656 91.714844 69.230469 91.199219 L 115.277344 82.828125 C 124.96875 81.070312 134.734375 81.070312 144.425781 82.828125 L 190.472656 91.199219 C 193.230469 91.640625 195.988281 90.320312 197.234375 87.832031 Z M 186.101562 38.269531 C 186.101562 29.382812 179.730469 21.644531 170.671875 19.839844 L 138.46875 13.320312 C 132.734375 12.269531 126.972656 12.269531 121.28125 13.320312 L 88.714844 19.886719 C 79.972656 21.644531 73.601562 29.382812 73.601562 38.269531 L 73.601562 63.832031 L 113.714844 57.703125 C 124.40625 56.019531 135.296875 56.019531 145.988281 57.703125 L 186.101562 63.832031 Z M 86.101562 236.511719 L 86.101562 243.8125 C 88.03125 243.128906 90.15625 242.761719 92.351562 242.761719 C 94.550781 242.761719 96.671875 243.128906 98.601562 243.8125 L 98.601562 218.8125 C 91.351562 221.402344 86.101562 228.382812 86.101562 236.511719 Z M -5.28125 261.511719 L -72.515625 261.511719 L -85.015625 286.511719 L 7.21875 286.511719 Z M -13.898438 236.511719 L -63.898438 236.511719 L -63.898438 249.011719 L -13.898438 249.011719 Z M 198.601562 130.261719 C 201.921875 130.261719 205.046875 128.945312 207.414062 126.578125 C 209.785156 124.207031 211.101562 121.082031 211.101562 117.761719 C 211.101562 110.878906 205.488281 105.261719 198.601562 105.261719 Z M 61.101562 105.261719 C 54.21875 105.261719 48.601562 110.878906 48.601562 117.761719 C 48.601562 121.082031 49.921875 124.207031 52.289062 126.578125 C 54.65625 128.945312 57.78125 130.261719 61.101562 130.261719 Z M -113.898438 286.511719 L -113.898438 274.011719 L -101.398438 274.011719 C -99.03125 274.011719 -96.832031 275.332031 -95.832031 277.457031 L -95.148438 278.773438 L -81.964844 252.457031 C -80.964844 250.332031 -78.765625 249.011719 -76.398438 249.011719 L -76.398438 230.261719 C -76.398438 226.820312 -73.589844 224.011719 -70.148438 224.011719 L -7.648438 224.011719 C -4.207031 224.011719 -1.398438 226.820312 -1.398438 230.261719 L -1.398438 249.011719 C 0.96875 249.011719 3.167969 250.332031 4.167969 252.457031 L 6.488281 257.070312 C 13.46875 245.253906 24.601562 236.269531 38.03125 232.144531 L 78.800781 219.398438 C 83.292969 212.5625 90.351562 207.582031 98.601562 205.898438 L 98.601562 197.695312 C 78.167969 187.195312 63.59375 166.761719 61.417969 142.761719 L 61.101562 142.761719 C 54.414062 142.761719 48.164062 140.152344 43.402344 135.464844 C 38.714844 130.703125 36.101562 124.453125 36.101562 117.761719 C 36.101562 107.191406 42.71875 98.207031 51.972656 94.519531 C 51.800781 94.128906 50.675781 92.128906 50.675781 92.128906 C 47.96875 86.707031 48.039062 80.507812 50.800781 75.136719 C 53.046875 70.886719 56.660156 67.761719 61.101562 66.199219 L 61.101562 38.269531 C 61.101562 23.453125 71.671875 10.511719 86.542969 7.582031 L 118.839844 1.089844 C 126.164062 -0.351562 133.539062 -0.351562 140.910156 1.089844 L 173.40625 7.632812 C 188.03125 10.511719 198.601562 23.453125 198.601562 38.269531 L 198.601562 66.199219 C 203.046875 67.761719 206.660156 70.886719 208.90625 75.136719 C 211.664062 80.507812 211.738281 86.707031 209.027344 92.128906 C 209.027344 92.128906 207.902344 94.128906 207.734375 94.519531 C 216.984375 98.207031 223.601562 107.191406 223.601562 117.761719 C 223.601562 124.453125 220.988281 130.703125 216.300781 135.464844 C 211.542969 140.152344 205.292969 142.761719 198.601562 142.761719 L 198.285156 142.761719 C 196.84375 158.753906 189.984375 173.648438 178.484375 185.144531 C 173.285156 190.273438 167.425781 194.519531 161.101562 197.695312 L 161.101562 205.898438 C 169.355469 207.582031 176.410156 212.5625 180.902344 219.398438 L 221.671875 232.144531 C 245.234375 239.441406 261.101562 261 261.101562 285.757812 L 261.101562 367.761719 C 261.101562 371.207031 258.292969 374.011719 254.851562 374.011719 L -1.398438 374.011719 C -8.28125 374.011719 -13.898438 368.398438 -13.898438 361.511719 L -13.898438 349.011719 L -63.898438 349.011719 L -63.898438 361.511719 C -63.898438 368.398438 -69.511719 374.011719 -76.398438 374.011719 L -88.898438 374.011719 C -95.78125 374.011719 -101.398438 368.398438 -101.398438 361.511719 L -101.398438 347.890625 C -108.648438 345.253906 -113.898438 338.394531 -113.898438 330.261719 L -113.898438 305.261719 C -113.898438 298.207031 -109.894531 292.078125 -104.082031 288.882812 L -105.28125 286.511719 L -113.898438 286.511719 " fill-opacity="1" fill-rule="nonzero"/></g><path fill="rgb(85.879517%, 12.548828%, 24.708557%)" d="M 193.96875 255.34375 L 298.96875 255.34375 L 298.96875 337.84375 L 193.96875 337.84375 Z M 193.96875 255.34375 " fill-opacity="1" fill-rule="nonzero"/><g clip-path="url(#clip-6)"><path fill="rgb(0%, 0%, 0%)" d="M 344.371094 260.445312 L 308.09375 260.445312 L 308.09375 244.785156 L 183.289062 244.785156 L 183.289062 349.445312 L 201.320312 349.445312 C 201.320312 363.699219 212.898438 375.289062 227.125 375.289062 C 241.347656 375.289062 252.925781 363.691406 252.925781 349.445312 L 307.777344 349.445312 C 307.777344 363.699219 319.351562 375.289062 333.578125 375.289062 C 347.804688 375.289062 359.382812 363.691406 359.382812 349.445312 L 375.046875 349.445312 L 375.046875 313.535156 Z M 227.125 360.570312 C 221 360.570312 216.015625 355.578125 216.015625 349.445312 C 216.015625 343.316406 221 338.324219 227.125 338.324219 C 233.246094 338.324219 238.230469 343.316406 238.230469 349.445312 C 238.230469 355.578125 233.246094 360.570312 227.125 360.570312 Z M 293.394531 334.726562 L 248.300781 334.726562 C 243.636719 328.019531 235.886719 323.605469 227.125 323.605469 C 218.359375 323.605469 210.609375 328.019531 205.945312 334.726562 L 197.988281 334.726562 L 197.988281 259.503906 L 293.398438 259.503906 L 293.398438 260.445312 Z M 333.578125 360.570312 C 327.453125 360.570312 322.472656 355.578125 322.472656 349.445312 C 322.472656 343.316406 327.453125 338.324219 333.578125 338.324219 C 339.699219 338.324219 344.683594 343.316406 344.683594 349.445312 C 344.683594 355.578125 339.699219 360.570312 333.578125 360.570312 Z M 360.347656 334.726562 L 354.757812 334.726562 C 350.097656 328.019531 342.347656 323.605469 333.582031 323.605469 C 324.8125 323.605469 317.066406 328.019531 312.402344 334.726562 L 308.09375 334.726562 L 308.09375 275.164062 L 335.890625 275.164062 L 360.347656 317.488281 Z M 360.347656 334.726562 " fill-opacity="1" fill-rule="nonzero"/></g><path fill="rgb(0%, 0%, 0%)" d="M 227.148438 323.042969 C 212.855469 323.042969 201.273438 334.628906 201.273438 348.917969 C 201.273438 363.210938 212.855469 374.792969 227.148438 374.792969 C 241.4375 374.792969 253.023438 363.210938 253.023438 348.917969 C 253.023438 334.628906 241.4375 323.042969 227.148438 323.042969 Z M 227.148438 323.042969 " fill-opacity="1" fill-rule="nonzero"/><path fill="rgb(0%, 0%, 0%)" d="M 333.648438 323.042969 C 319.355469 323.042969 307.773438 334.628906 307.773438 348.917969 C 307.773438 363.210938 319.355469 374.792969 333.648438 374.792969 C 347.9375 374.792969 359.523438 363.210938 359.523438 348.917969 C 359.523438 334.628906 347.9375 323.042969 333.648438 323.042969 Z M 333.648438 323.042969 " fill-opacity="1" fill-rule="nonzero"/><path fill="rgb(45.098877%, 45.098877%, 45.098877%)" d="M 227.34375 334.492188 C 219.265625 334.492188 212.71875 341.039062 212.71875 349.117188 C 212.71875 357.191406 219.265625 363.742188 227.34375 363.742188 C 235.421875 363.742188 241.96875 357.191406 241.96875 349.117188 C 241.96875 341.039062 235.421875 334.492188 227.34375 334.492188 Z M 227.34375 334.492188 " fill-opacity="1" fill-rule="nonzero"/><path fill="rgb(45.098877%, 45.098877%, 45.098877%)" d="M 333.84375 334.492188 C 325.765625 334.492188 319.21875 341.039062 319.21875 349.117188 C 319.21875 357.191406 325.765625 363.742188 333.84375 363.742188 C 341.921875 363.742188 348.46875 357.191406 348.46875 349.117188 C 348.46875 341.039062 341.921875 334.492188 333.84375 334.492188 Z M 333.84375 334.492188 " fill-opacity="1" fill-rule="nonzero"/></svg>