<?xml version="1.0" encoding="UTF-8"?><svg xmlns="http://www.w3.org/2000/svg" xmlns:xlink="http://www.w3.org/1999/xlink" width="375" zoomAndPan="magnify" viewBox="0 0 375 374.999991" height="374.999991" preserveAspectRatio="xMidYMid meet" version="1.0"><defs><clipPath id="clip-0"><path d="M 6 218 L 234 218 L 234 369 L 6 369 Z M 6 218 " clip-rule="nonzero"/></clipPath><clipPath id="clip-1"><path d="M 206 330 L 234 330 L 234 369 L 206 369 Z M 206 330 " clip-rule="nonzero"/></clipPath><clipPath id="clip-2"><path d="M 231 243 L 234 243 L 234 281 L 231 281 Z M 231 243 " clip-rule="nonzero"/></clipPath><clipPath id="clip-3"><path d="M 231 280 L 234 280 L 234 369 L 231 369 Z M 231 280 " clip-rule="nonzero"/></clipPath><clipPath id="clip-4"><path d="M 0 4.046875 L 234 4.046875 L 234 375 L 0 375 Z M 0 4.046875 " clip-rule="nonzero"/></clipPath></defs><path fill="rgb(100%, 75.289917%, 0.389099%)" d="M 235.171875 244.289062 L 366.421875 244.289062 L 366.421875 365.03125 L 235.171875 365.03125 Z M 235.171875 244.289062 " fill-opacity="1" fill-rule="nonzero"/><g clip-path="url(#clip-0)"><path fill="rgb(34.118652%, 59.609985%, 84.709167%)" d="M 256.25 286.429688 L 256.25 368.4375 L 6.25 368.4375 L 6.25 286.429688 C 6.25 264.554688 20.433594 245.242188 41.308594 238.75 L 106.25 218.4375 L 156.25 218.4375 L 221.191406 238.75 C 242.066406 245.242188 256.25 264.554688 256.25 286.429688 " fill-opacity="1" fill-rule="nonzero"/></g><path fill="rgb(98.039246%, 74.119568%, 37.649536%)" d="M 156.25 175.6875 L 156.25 224.6875 L 131.25 249.6875 L 106.25 224.6875 L 106.25 175.6875 L 156.25 175.6875 " fill-opacity="1" fill-rule="nonzero"/><path fill="rgb(97.648621%, 67.449951%, 24.308777%)" d="M 200 99.6875 C 210.375 99.6875 218.75 108.0625 218.75 118.4375 C 218.75 123.636719 216.625 128.324219 213.257812 131.695312 C 209.886719 135.0625 205.199219 137.1875 200 137.1875 L 187.5 137.1875 L 187.5 99.6875 L 200 99.6875 " fill-opacity="1" fill-rule="nonzero"/><path fill="rgb(97.648621%, 67.449951%, 24.308777%)" d="M 75 99.6875 L 75 137.1875 L 62.5 137.1875 C 57.300781 137.1875 52.613281 135.0625 49.242188 131.695312 C 45.875 128.324219 43.75 123.636719 43.75 118.4375 C 43.75 108.0625 52.125 99.6875 62.5 99.6875 L 75 99.6875 " fill-opacity="1" fill-rule="nonzero"/><path fill="rgb(97.648621%, 67.449951%, 24.308777%)" d="M 156.25 175.6875 L 156.25 206.9375 C 148.632812 210.308594 140.113281 212.1875 131.25 212.1875 C 122.386719 212.1875 113.867188 210.308594 106.25 206.9375 L 106.25 175.6875 L 156.25 175.6875 " fill-opacity="1" fill-rule="nonzero"/><path fill="rgb(98.039246%, 74.119568%, 37.649536%)" d="M 193.75 99.6875 L 193.75 137.1875 C 193.75 171.683594 165.746094 199.6875 131.25 199.6875 C 96.753906 199.6875 68.75 171.683594 68.75 137.1875 L 68.75 87.1875 C 68.75 80.328125 74.390625 74.6875 81.25 74.6875 L 181.25 74.6875 C 188.109375 74.6875 193.75 80.328125 193.75 87.1875 L 193.75 99.6875 " fill-opacity="1" fill-rule="nonzero"/><path fill="rgb(42.349243%, 66.668701%, 88.238525%)" d="M 195.554688 72.074219 C 203.929688 73.367188 208.617188 82.425781 204.808594 89.996094 L 204.175781 91.3125 C 201.683594 96.246094 196.265625 99.003906 190.746094 98.003906 L 144.703125 89.628906 C 135.816406 87.992188 126.683594 87.992188 117.796875 89.628906 L 71.753906 98.003906 C 66.234375 99.003906 60.816406 96.246094 58.324219 91.3125 L 57.691406 89.996094 C 53.882812 82.425781 58.570312 73.367188 66.941406 72.074219 L 68.75 71.804688 L 116.0625 64.507812 C 126.121094 62.992188 136.375 62.992188 146.433594 64.507812 L 193.75 71.804688 L 195.554688 72.074219 " fill-opacity="1" fill-rule="nonzero"/><path fill="rgb(34.118652%, 59.609985%, 84.709167%)" d="M 193.75 68.4375 L 193.75 71.804688 L 146.433594 64.507812 C 136.375 62.992188 126.121094 62.992188 116.0625 64.507812 L 68.75 71.804688 L 68.75 38.945312 C 68.75 27.007812 77.171875 16.753906 88.867188 14.433594 L 89.183594 14.359375 L 121.433594 7.867188 C 127.929688 6.621094 134.570312 6.621094 141.0625 7.867188 L 173.316406 14.359375 L 173.632812 14.433594 C 185.328125 16.753906 193.75 27.007812 193.75 38.945312 L 193.75 68.4375 " fill-opacity="1" fill-rule="nonzero"/><path fill="rgb(98.039246%, 74.119568%, 37.649536%)" d="M 56.25 330.9375 L 56.25 368.4375 L 6.25 368.4375 L 6.25 330.9375 L 56.25 330.9375 " fill-opacity="1" fill-rule="nonzero"/><g clip-path="url(#clip-1)"><path fill="rgb(98.039246%, 74.119568%, 37.649536%)" d="M 256.25 330.9375 L 256.25 368.4375 L 206.25 368.4375 L 206.25 330.9375 L 256.25 330.9375 " fill-opacity="1" fill-rule="nonzero"/></g><path fill="rgb(25.489807%, 49.01886%, 78.42865%)" d="M 106.25 212.1875 L 106.25 262.1875 C 106.25 255.328125 100.609375 249.6875 93.75 249.6875 C 86.890625 249.6875 81.25 255.328125 81.25 262.1875 L 81.25 237.1875 C 81.25 232.867188 82.375 228.8125 84.253906 225.296875 C 88.5 217.484375 96.753906 212.1875 106.25 212.1875 " fill-opacity="1" fill-rule="nonzero"/><path fill="rgb(25.489807%, 49.01886%, 78.42865%)" d="M 168.75 249.6875 C 161.890625 249.6875 156.25 255.328125 156.25 262.1875 L 156.25 212.1875 C 165.746094 212.1875 174 217.484375 178.246094 225.296875 C 180.125 228.8125 181.25 232.867188 181.25 237.1875 L 181.25 262.1875 C 181.25 255.328125 175.609375 249.6875 168.75 249.6875 " fill-opacity="1" fill-rule="nonzero"/><g clip-path="url(#clip-2)"><path fill="rgb(92.549133%, 47.839355%, 8.628845%)" d="M 281.25 243.4375 L 281.25 280.9375 L 231.25 280.9375 L 231.25 243.4375 L 281.25 243.4375 " fill-opacity="1" fill-rule="nonzero"/></g><g clip-path="url(#clip-3)"><path fill="rgb(96.469116%, 54.899597%, 7.058716%)" d="M 368.75 280.9375 L 368.75 368.4375 L 231.25 368.4375 L 231.25 280.9375 L 281.25 280.9375 L 281.25 305.9375 L 318.75 305.9375 L 318.75 280.9375 L 368.75 280.9375 " fill-opacity="1" fill-rule="nonzero"/></g><path fill="rgb(6.269836%, 5.879211%, 5.099487%)" d="M 118.75 118.4375 C 118.75 111.550781 113.132812 105.9375 106.25 105.9375 C 99.363281 105.9375 93.75 111.550781 93.75 118.4375 C 93.75 125.320312 99.363281 130.9375 106.25 130.9375 C 113.132812 130.9375 118.75 125.320312 118.75 118.4375 " fill-opacity="1" fill-rule="nonzero"/><path fill="rgb(6.269836%, 5.879211%, 5.099487%)" d="M 156.25 130.9375 C 163.132812 130.9375 168.75 125.320312 168.75 118.4375 C 168.75 111.550781 163.132812 105.9375 156.25 105.9375 C 149.363281 105.9375 143.75 111.550781 143.75 118.4375 C 143.75 125.320312 149.363281 130.9375 156.25 130.9375 " fill-opacity="1" fill-rule="nonzero"/><path fill="rgb(6.269836%, 5.879211%, 5.099487%)" d="M 151.902344 160.625 L 143.652344 151.25 C 136.792969 157.304688 125.707031 157.304688 118.847656 151.25 L 110.59375 160.625 C 116.285156 165.652344 123.632812 168.4375 131.25 168.4375 C 138.867188 168.4375 146.214844 165.652344 151.902344 160.625 " fill-opacity="1" fill-rule="nonzero"/><path fill="rgb(6.269836%, 5.879211%, 5.099487%)" d="M 112.5 299.6875 L 75 299.6875 L 75 312.1875 L 112.5 312.1875 L 112.5 299.6875 " fill-opacity="1" fill-rule="nonzero"/><g clip-path="url(#clip-4)"><path fill="rgb(6.269836%, 5.879211%, 5.099487%)" d="M 362.5 274.6875 L 325 274.6875 L 325 249.6875 L 362.5 249.6875 Z M 362.5 362.1875 L 237.5 362.1875 L 237.5 287.1875 L 275 287.1875 L 275 305.9375 C 275 309.378906 277.808594 312.1875 281.25 312.1875 L 318.75 312.1875 C 322.191406 312.1875 325 309.378906 325 305.9375 L 325 287.1875 L 362.5 287.1875 Z M 237.5 249.6875 L 275 249.6875 L 275 274.6875 L 237.5 274.6875 Z M 287.5 249.6875 L 312.5 249.6875 L 312.5 299.6875 L 287.5 299.6875 Z M 225 324.6875 L 212.5 324.6875 L 212.5 293.4375 L 200 293.4375 L 200 362.1875 L 62.5 362.1875 L 62.5 293.4375 L 50 293.4375 L 50 324.6875 L 12.5 324.6875 L 12.5 286.429688 C 12.5 267.191406 24.804688 250.445312 43.1875 244.683594 L 75.242188 234.671875 C 75.195312 235.503906 75 236.308594 75 237.1875 L 75 262.1875 C 75 265.628906 77.808594 268.4375 81.25 268.4375 C 84.691406 268.4375 87.5 265.628906 87.5 262.1875 C 87.5 258.746094 90.308594 255.9375 93.75 255.9375 C 97.191406 255.9375 100 258.746094 100 262.1875 C 100 265.628906 102.808594 268.4375 106.25 268.4375 C 109.691406 268.4375 112.5 265.628906 112.5 262.1875 L 112.5 239.75 L 126.804688 254.128906 C 128.050781 255.328125 129.613281 255.9375 131.25 255.9375 C 132.886719 255.9375 134.449219 255.328125 135.691406 254.128906 L 150 239.75 L 150 262.1875 C 150 265.628906 152.808594 268.4375 156.25 268.4375 C 159.691406 268.4375 162.5 265.628906 162.5 262.1875 C 162.5 258.746094 165.308594 255.9375 168.75 255.9375 C 172.191406 255.9375 175 258.746094 175 262.1875 C 175 265.628906 177.808594 268.4375 181.25 268.4375 C 184.691406 268.4375 187.5 265.628906 187.5 262.1875 L 187.5 237.1875 C 187.5 236.308594 187.304688 235.503906 187.253906 234.671875 L 219.3125 244.683594 C 221.3125 245.367188 223.191406 246.121094 225 247 Z M 225 362.1875 L 212.5 362.1875 L 212.5 337.1875 L 225 337.1875 Z M 50 362.1875 L 12.5 362.1875 L 12.5 337.1875 L 50 337.1875 Z M 87.5 237.1875 C 87.5 229.058594 92.75 222.074219 100 219.488281 L 100 244.488281 C 98.070312 243.804688 95.921875 243.4375 93.75 243.4375 C 91.578125 243.4375 89.429688 243.804688 87.5 244.488281 Z M 150 203.25 L 150 222.125 L 131.25 240.875 L 112.5 222.125 L 112.5 203.324219 C 118.503906 204.984375 124.804688 205.9375 131.25 205.9375 C 137.742188 205.9375 143.992188 204.9375 150 203.25 Z M 91.503906 176.933594 C 80.882812 166.3125 75 152.203125 75 137.1875 L 75 103.765625 L 118.945312 95.757812 C 127.125 94.316406 135.375 94.316406 143.554688 95.804688 L 187.5 103.765625 L 187.5 137.1875 C 187.5 168.191406 162.253906 193.4375 131.25 193.4375 C 116.234375 193.4375 102.125 187.554688 91.503906 176.933594 Z M 63.867188 88.503906 L 63.257812 87.261719 C 62.378906 85.429688 62.378906 83.378906 63.304688 81.546875 C 64.257812 79.742188 65.867188 78.570312 67.871094 78.25 L 116.992188 70.683594 C 121.753906 70 126.488281 69.632812 131.25 69.632812 C 136.011719 69.632812 140.746094 70 145.507812 70.683594 L 194.628906 78.25 C 196.628906 78.570312 198.242188 79.742188 199.195312 81.546875 C 200.121094 83.378906 200.121094 85.429688 199.242188 87.1875 L 198.632812 88.503906 C 197.386719 90.996094 194.628906 92.386719 191.871094 91.875 L 145.824219 83.5 C 136.132812 81.695312 126.367188 81.695312 116.675781 83.5 L 70.628906 91.875 C 67.871094 92.386719 65.113281 90.996094 63.867188 88.503906 Z M 75 38.945312 C 75 30.058594 81.371094 22.320312 90.429688 20.511719 L 122.632812 13.992188 C 128.320312 12.945312 134.128906 12.945312 139.820312 13.992188 L 172.386719 20.5625 C 181.128906 22.320312 187.5 30.058594 187.5 38.945312 L 187.5 64.507812 L 147.386719 58.378906 C 136.695312 56.695312 125.804688 56.695312 115.113281 58.378906 L 75 64.507812 Z M 175 237.1875 L 175 244.488281 C 173.070312 243.804688 170.921875 243.4375 168.75 243.4375 C 166.578125 243.4375 164.429688 243.804688 162.5 244.488281 L 162.5 219.488281 C 169.75 222.074219 175 229.058594 175 237.1875 Z M 62.5 130.9375 C 59.179688 130.9375 56.054688 129.617188 53.6875 127.25 C 51.320312 124.882812 50 121.757812 50 118.4375 C 50 111.578125 55.640625 105.9375 62.5 105.9375 Z M 200 105.9375 C 206.859375 105.9375 212.5 111.578125 212.5 118.4375 C 212.5 121.757812 211.179688 124.882812 208.8125 127.25 C 206.445312 129.617188 203.320312 130.9375 200 130.9375 Z M 368.75 237.1875 L 233.25 237.1875 C 230.054688 235.429688 226.683594 233.941406 223.070312 232.816406 L 182.300781 220.074219 C 177.808594 213.238281 170.75 208.257812 162.5 206.546875 L 162.5 198.367188 C 182.933594 187.871094 197.484375 167.4375 199.683594 143.4375 L 200 143.4375 C 206.6875 143.4375 212.9375 140.824219 217.699219 136.136719 C 222.386719 131.375 225 125.125 225 118.4375 C 225 107.867188 218.382812 98.882812 209.128906 95.195312 C 209.300781 94.804688 210.425781 92.828125 210.425781 92.828125 C 213.109375 87.382812 213.0625 81.179688 210.328125 75.808594 C 208.054688 71.5625 204.441406 68.4375 200 66.875 L 200 38.945312 C 200 24.125 189.429688 11.1875 174.558594 8.257812 L 142.261719 1.761719 C 134.9375 0.296875 127.5625 0.296875 120.191406 1.761719 L 87.621094 8.304688 C 73.070312 11.1875 62.5 24.125 62.5 38.945312 L 62.5 66.875 C 58.054688 68.4375 54.441406 71.5625 52.171875 75.808594 C 49.4375 81.179688 49.363281 87.382812 52.074219 92.828125 C 52.074219 92.828125 53.199219 94.804688 53.367188 95.195312 C 44.117188 98.882812 37.5 107.867188 37.5 118.4375 C 37.5 125.125 40.113281 131.375 44.800781 136.136719 C 49.558594 140.824219 55.808594 143.4375 62.5 143.4375 L 62.816406 143.4375 C 64.257812 159.429688 71.117188 174.320312 82.617188 185.820312 C 87.816406 190.921875 93.675781 195.195312 100 198.367188 L 100 206.546875 C 91.746094 208.257812 84.691406 213.238281 80.199219 220.074219 L 39.429688 232.742188 C 15.867188 240.117188 0 261.675781 0 286.429688 L 0 368.4375 C 0 371.878906 2.808594 374.6875 6.25 374.6875 L 368.75 374.6875 C 372.191406 374.6875 375 371.878906 375 368.4375 L 375 243.4375 C 375 239.996094 372.191406 237.1875 368.75 237.1875 " fill-opacity="1" fill-rule="nonzero"/></g><path stroke-linecap="butt" transform="matrix(0.000000000000000688, 11.231844, -11.249999, 0.000000000000000689, 229.543333, 244.286528)" fill="none" stroke-linejoin="miter" d="M -0.000122127 0.0000324157 L 11.619324 0.0000324157 " stroke="rgb(0%, 0%, 0%)" stroke-width="1" stroke-opacity="1" stroke-miterlimit="4"/><path stroke-linecap="butt" transform="matrix(-11.251811, -0.000000000000001378, 0.000000000000001378, -11.249999, 369.397423, 369.374976)" fill="none" stroke-linejoin="miter" d="M -0.000090195 -0.00000215606 L 12.932203 -0.00000215606 " stroke="rgb(0%, 0%, 0%)" stroke-width="1" stroke-opacity="1" stroke-miterlimit="4"/><path stroke-linecap="butt" transform="matrix(0.000000000000000688, 11.231844, -11.249999, 0.000000000000000689, 369.37246, 244.286528)" fill="none" stroke-linejoin="miter" d="M -0.000122127 0.000121466 L 11.619324 0.000121466 " stroke="rgb(0%, 0%, 0%)" stroke-width="1" stroke-opacity="1" stroke-miterlimit="4"/><path stroke-linecap="butt" transform="matrix(-11.249033, -0.000000000000001378, 0.000000000000001378, -11.249999, 366.057578, 286.491778)" fill="none" stroke-linejoin="miter" d="M -0.0000902911 -0.0000364012 L 12.13498 -0.0000364012 " stroke="rgb(0%, 0%, 0%)" stroke-width="1" stroke-opacity="1" stroke-miterlimit="4"/><path fill="rgb(94.898987%, 94.898987%, 95.689392%)" d="M 283.007812 245.382812 L 316.007812 245.382812 L 316.007812 310.621094 L 283.007812 310.621094 Z M 283.007812 245.382812 " fill-opacity="1" fill-rule="nonzero"/><path stroke-linecap="butt" transform="matrix(0.000000000000000686, -11.197149, 11.249999, 0.000000000000000689, 283.488267, 317.719374)" fill="none" stroke-linejoin="miter" d="M 0.0000556871 0.00000129473 L 6.430962 0.00000129473 " stroke="rgb(0%, 0%, 0%)" stroke-width="1" stroke-opacity="1" stroke-miterlimit="4"/><path stroke-linecap="butt" transform="matrix(0.000000000000000686, -11.197149, 11.249999, 0.000000000000000689, 315.429272, 317.719374)" fill="none" stroke-linejoin="miter" d="M 0.0000556871 0.0000369523 L 6.430962 0.0000369523 " stroke="rgb(0%, 0%, 0%)" stroke-width="1" stroke-opacity="1" stroke-miterlimit="4"/><path stroke-linecap="butt" transform="matrix(-11.226435, -0.000000000000001375, 0.000000000000001378, -11.249999, 374.996053, 241.202783)" fill="none" stroke-linejoin="miter" d="M -0.00000358749 -0.000030439 L 13.428123 -0.000030439 " stroke="rgb(0%, 0%, 0%)" stroke-width="1" stroke-opacity="1" stroke-miterlimit="4"/><path stroke-linecap="butt" transform="matrix(-11.200995, -0.000000000000001372, 0.000000000000001378, -11.249999, 317.982845, 312.098651)" fill="none" stroke-linejoin="miter" d="M -0.000136575 0.0000883961 L 3.348478 0.0000883961 " stroke="rgb(0%, 0%, 0%)" stroke-width="1" stroke-opacity="1" stroke-miterlimit="4"/></svg>